<?xml version="1.0" standalone="no"?>
<svg xmlns="http://www.w3.org/2000/svg" viewBox="0 0 202.728 36" width="202.728" height="36"><g fill="#10242c" color="#10242c" transform="translate(174.728, 3.9999999999999982) scale(0.2800001)"><svg width="100.0" height="100.0" x="0.0" y="0.0" viewBox="0 0 100 100"><path fill="currentColor" d="M49.951,87.075c0.212-0.248,0.117-0.575-0.033-0.841C50.075,86.505,50.178,86.833,49.951,87.075z"></path><path fill="currentColor" d="M64.521,86.734c-0.15,0.17-0.451,0.289-0.98,0.33c-0.09,0.01-0.221,0.01-0.38,0.021  c-0.41,0.011-1.04,0.021-1.841,0.04c-0.439,0-0.92,0-1.449,0.011c-0.811,0-1.92,0-3.229,0.01c-1.933,0.011-4.07,0.011-6.19,0.011  c-3.66,0-7.23-0.011-9.46-0.021c-0.62,0-1.13-0.011-1.52-0.011c-1.29-0.012-2.27-0.029-2.77-0.051c-0.07,0-0.15,0-0.23-0.01  c-0.09-0.011-0.17-0.021-0.24-0.031c-1.73-0.238-0.36-1.618-0.36-1.618s2.1-1.642,3.14-3.279c0,0,0.31-0.011,0.6-2.54  c0.4-3.58,0.75-6.359,0.75-6.359h19.291c0,0,0.341,2.779,0.75,6.359c0.279,2.529,0.591,2.54,0.591,2.54  c0.979,1.54,2.88,3.08,3.118,3.271c0.012,0,0.021,0.011,0.021,0.011s0.07,0.069,0.16,0.188  C64.51,85.873,64.819,86.384,64.521,86.734z"></path><path fill="currentColor" d="M49.901,85.83c0.064,0.078,0.135,0.179,0.197,0.289C50.036,86.011,49.965,85.91,49.901,85.83z"></path><path fill="currentColor" d="M50.129,71.937c-3.169,0.013-44.547,0.144-46.563,0C1.471,71.79,1.32,69.691,1.32,69.691V14.744  c0-1.797,2.245-1.9,2.245-1.9h46.116h0.639h46.113c0,0,2.246,0.103,2.246,1.9v54.948c0,0-0.15,2.099-2.246,2.245  C94.463,72.078,54.797,71.951,50.129,71.937 M94.898,16.541H5.213v50.756h89.686V16.541L94.898,16.541z"></path></svg></g><path fill="#25c9df" fill-rule="nonzero" d="M0 17.40L0 0.89L5.30 0.89L5.30 13.18L13.78 13.18L13.78 17.40L0 17.40ZM21.94 4.44Q24.84 4.44 26.66 5.41Q28.49 6.38 28.49 8.57L28.49 8.57L28.49 13.51Q28.49 13.92 28.68 14.18Q28.87 14.45 29.26 14.45L29.26 14.45L30.12 14.45L30.12 17.21Q30.05 17.26 29.75 17.36Q29.45 17.47 28.90 17.58Q28.34 17.69 27.62 17.69L27.62 17.69Q26.23 17.69 25.33 17.27Q24.43 16.85 24.10 16.10L24.10 16.10Q23.18 16.82 22.06 17.26Q20.93 17.69 19.42 17.69L19.42 17.69Q14.95 17.69 14.95 14.14L14.95 14.14Q14.95 12.29 15.95 11.32Q16.94 10.34 18.82 9.98Q20.69 9.62 23.71 9.62L23.71 9.62L23.71 9.00Q23.71 8.26 23.20 7.87Q22.68 7.49 21.86 7.49L21.86 7.49Q21.12 7.49 20.58 7.75Q20.04 8.02 20.04 8.59L20.04 8.59L20.04 8.69L15.34 8.69Q15.31 8.57 15.31 8.35L15.31 8.35Q15.31 6.55 17.03 5.50Q18.74 4.44 21.94 4.44L21.94 4.44ZM23.71 11.88Q21.67 11.88 20.70 12.32Q19.73 12.77 19.73 13.51L19.73 13.51Q19.73 14.71 21.36 14.71L21.36 14.71Q22.30 14.71 23.00 14.21Q23.71 13.70 23.71 12.96L23.71 12.96L23.71 11.88ZM39.38 4.42Q39.94 4.42 40.37 4.55Q40.80 4.68 40.80 4.70L40.80 4.70L40.80 8.71L39.26 8.71Q37.78 8.71 37.12 9.48Q36.46 10.25 36.46 11.76L36.46 11.76L36.46 17.40L31.68 17.40L31.68 4.73L35.59 4.73L35.90 6.65Q36.34 5.54 37.27 4.98Q38.21 4.42 39.38 4.42L39.38 4.42ZM48.96 4.44Q51.50 4.44 53.27 5.44Q55.03 6.43 55.03 8.52L55.03 8.52L50.59 8.52Q50.59 7.82 49.97 7.54L49.97 7.54Q49.54 7.30 48.89 7.30L48.89 7.30Q47.16 7.30 47.16 8.11L47.16 8.11Q47.16 8.57 47.76 8.76Q48.36 8.95 49.73 9.17L49.73 9.17Q51.41 9.41 52.54 9.73Q53.66 10.06 54.50 10.88Q55.34 11.71 55.34 13.20L55.34 13.20Q55.34 15.62 53.53 16.66Q51.72 17.69 48.79 17.69L48.79 17.69Q47.11 17.69 45.62 17.22Q44.14 16.75 43.20 15.77Q42.26 14.78 42.26 13.27L42.26 13.27L46.70 13.27L46.70 13.37Q46.73 14.18 47.39 14.51Q48.05 14.83 48.79 14.83L48.79 14.83Q50.78 14.83 50.78 13.90L50.78 13.90Q50.78 13.42 50.16 13.20Q49.54 12.98 48.12 12.74L48.12 12.74Q46.42 12.46 45.32 12.12Q44.23 11.78 43.42 10.98Q42.60 10.18 42.60 8.74L42.60 8.74Q42.60 6.41 44.36 5.42Q46.13 4.44 48.96 4.44L48.96 4.44ZM65.93 17.40L65.93 0.89L71.23 0.89L71.23 13.18L79.70 13.18L79.70 17.40L65.93 17.40ZM88.15 4.44Q91.63 4.44 93.47 6.07Q95.30 7.70 95.30 11.06L95.30 11.06L95.30 11.88L85.80 11.88Q85.80 13.25 86.41 13.94Q87.02 14.64 88.34 14.64L88.34 14.64Q89.54 14.64 90.11 14.14Q90.67 13.63 90.67 12.79L90.67 12.79L95.30 12.79Q95.30 15.10 93.55 16.39Q91.80 17.69 88.44 17.69L88.44 17.69Q84.91 17.69 82.97 16.04Q81.02 14.40 81.02 11.06L81.02 11.06Q81.02 7.80 82.92 6.12Q84.82 4.44 88.15 4.44L88.15 4.44ZM88.34 7.49Q86.09 7.49 85.82 9.62L85.82 9.62L90.48 9.62Q90.48 8.64 89.92 8.06Q89.35 7.49 88.34 7.49L88.34 7.49ZM104.16 4.44Q107.50 4.44 109.40 6.13Q111.31 7.82 111.31 11.06L111.31 11.06Q111.31 14.30 109.40 16.00Q107.50 17.69 104.16 17.69L104.16 17.69Q100.82 17.69 98.93 16.01Q97.03 14.33 97.03 11.06L97.03 11.06Q97.03 7.80 98.93 6.12Q100.82 4.44 104.16 4.44L104.16 4.44ZM104.16 7.68Q101.81 7.68 101.81 10.39L101.81 10.39L101.81 11.76Q101.81 14.45 104.16 14.45L104.16 14.45Q106.54 14.45 106.54 11.76L106.54 11.76L106.54 10.39Q106.54 7.68 104.16 7.68L104.16 7.68ZM121.97 4.44Q124.54 4.44 125.93 6.12Q127.32 7.80 127.32 11.09L127.32 11.09Q127.32 14.35 125.93 16.02Q124.54 17.69 121.97 17.69L121.97 17.69Q119.76 17.69 118.42 16.25L118.42 16.25L118.42 22.13L113.64 22.13L113.64 4.73L117.53 4.73L117.94 6.53Q119.33 4.44 121.97 4.44L121.97 4.44ZM120.48 7.97Q119.42 7.97 118.90 8.71Q118.37 9.46 118.37 10.66L118.37 10.66L118.37 11.45Q118.37 12.65 118.90 13.40Q119.42 14.16 120.48 14.16L120.48 14.16Q122.54 14.16 122.54 11.69L122.54 11.69L122.54 10.42Q122.54 7.97 120.48 7.97L120.48 7.97ZM136.18 4.44Q139.51 4.44 141.42 6.13Q143.33 7.82 143.33 11.06L143.33 11.06Q143.33 14.30 141.42 16.00Q139.51 17.69 136.18 17.69L136.18 17.69Q132.84 17.69 130.94 16.01Q129.05 14.33 129.05 11.06L129.05 11.06Q129.05 7.80 130.94 6.12Q132.84 4.44 136.18 4.44L136.18 4.44ZM136.18 7.68Q133.82 7.68 133.82 10.39L133.82 10.39L133.82 11.76Q133.82 14.45 136.18 14.45L136.18 14.45Q138.55 14.45 138.55 11.76L138.55 11.76L138.55 10.39Q138.55 7.68 136.18 7.68L136.18 7.68ZM150.58 17.40L145.80 17.40L145.80 0L150.58 0L150.58 17.40ZM166.73 17.40L162.84 17.40L162.43 15.60Q161.04 17.69 158.40 17.69L158.40 17.69Q155.83 17.69 154.44 16.01Q153.05 14.33 153.05 11.04L153.05 11.04Q153.05 7.78 154.44 6.11Q155.83 4.44 158.40 4.44L158.40 4.44Q160.58 4.44 161.95 5.90L161.95 5.90L161.95 0L166.73 0L166.73 17.40ZM159.89 7.97Q157.82 7.97 157.82 10.44L157.82 10.44L157.82 11.71Q157.82 14.16 159.89 14.16L159.89 14.16Q160.94 14.16 161.47 13.42Q162 12.67 162 11.47L162 11.47L162 10.68Q162 9.48 161.47 8.72Q160.94 7.97 159.89 7.97L159.89 7.97Z" transform="translate(0, 6.936)"></path></svg>